HIERARCHY
ROOT Hips
{
  OFFSET 5.80788e-005 67.184 3.4734
  CHANNELS 6 Xposition Yposition Zposition Zrotation Xrotation Yrotation
  JOINT Chest
  {
    OFFSET 0 8.7983 -4.7612
    CHANNELS 6 Xposition Yposition Zposition Zrotation Xrotation Yrotation
    JOINT Chest2
    {
      OFFSET 0 8.0291 0.4195
      CHANNELS 6 Xposition Yposition Zposition Zrotation Xrotation Yrotation
      JOINT Chest3
      {
        OFFSET 0 9.9351 -2.2114
        CHANNELS 6 Xposition Yposition Zposition Zrotation Xrotation Yrotation
        JOINT Neck
        {
          OFFSET 0 22.3885 -0.4656
          CHANNELS 6 Xposition Yposition Zposition Zrotation Xrotation Yrotation
          JOINT Head
          {
            OFFSET -0.0001 12.643 3.4389
            CHANNELS 6 Xposition Yposition Zposition Zrotation Xrotation Yrotation
            End Site
            {
              OFFSET 0.0001 17.6655 0.5274
            }
          }
        }
        JOINT LeftCollar
        {
          OFFSET 2.2603 21.606 7.4023
          CHANNELS 6 Xposition Yposition Zposition Zrotation Xrotation Yrotation
          JOINT LeftShoulder
          {
            OFFSET 13.5163 -1.1332 -5.0146
            CHANNELS 6 Xposition Yposition Zposition Zrotation Xrotation Yrotation
            JOINT LeftElbow
            {
              OFFSET -0.0995 -28.05 -0.2431
              CHANNELS 6 Xposition Yposition Zposition Zrotation Xrotation Yrotation
              JOINT LeftWrist
              {
                OFFSET 0.0679 -23.3996 -0.1402
                CHANNELS 6 Xposition Yposition Zposition Zrotation Xrotation Yrotation
                JOINT LeftFinger1
                {
                  OFFSET 0.7932 -9.069 2.5189
                  CHANNELS 6 Xposition Yposition Zposition Zrotation Xrotation Yrotation
                  JOINT LeftFinger11
                  {
                    OFFSET -0.8272 -3.3923 0.5977
                    CHANNELS 6 Xposition Yposition Zposition Zrotation Xrotation Yrotation
                    JOINT LeftFinger12
                    {
                      OFFSET -0.5649 -2.3158 0.4082
                      CHANNELS 6 Xposition Yposition Zposition Zrotation Xrotation Yrotation
                      End Site
                      {
                        OFFSET -0.4919 -1.6479 0.2673
                      }
                    }
                  }
                }
                JOINT LeftFinger2
                {
                  OFFSET 0.9159 -9.2044 0.2193
                  CHANNELS 6 Xposition Yposition Zposition Zrotation Xrotation Yrotation
                  JOINT LeftFinger21
                  {
                    OFFSET 0.0117 -4.1944 -0.0248
                    CHANNELS 6 Xposition Yposition Zposition Zrotation Xrotation Yrotation
                    JOINT LeftFinger22
                    {
                      OFFSET 0.0071 -2.3249 -0.0142
                      CHANNELS 6 Xposition Yposition Zposition Zrotation Xrotation Yrotation
                      End Site
                      {
                        OFFSET -0.1475 -2.0882 0.0028
                      }
                    }
                  }
                }
                JOINT LeftFinger3
                {
                  OFFSET 0.6113 -8.7231 -2.0637
                  CHANNELS 6 Xposition Yposition Zposition Zrotation Xrotation Yrotation
                  JOINT LeftFinger31
                  {
                    OFFSET -0.1927 -3.8059 -0.2383
                    CHANNELS 6 Xposition Yposition Zposition Zrotation Xrotation Yrotation
                    JOINT LeftFinger32
                    {
                      OFFSET -0.1091 -2.1688 -0.1362
                      CHANNELS 6 Xposition Yposition Zposition Zrotation Xrotation Yrotation
                      End Site
                      {
                        OFFSET -0.2358 -1.9176 -0.0906
                      }
                    }
                  }
                }
                JOINT LeftFinger4
                {
                  OFFSET -0.6151 -8.0947 -3.5641
                  CHANNELS 6 Xposition Yposition Zposition Zrotation Xrotation Yrotation
                  JOINT LeftFinger41
                  {
                    OFFSET -0.4882 -2.341 -0.6462
                    CHANNELS 6 Xposition Yposition Zposition Zrotation Xrotation Yrotation
                    JOINT LeftFinger42
                    {
                      OFFSET -0.3575 -1.7167 -0.4742
                      CHANNELS 6 Xposition Yposition Zposition Zrotation Xrotation Yrotation
                      End Site
                      {
                        OFFSET -0.4187 -1.5237 -0.3496
                      }
                    }
                  }
                }
                JOINT LeftFinger0
                {
                  OFFSET -1.42 -1.8761 1.4223
                  CHANNELS 6 Xposition Yposition Zposition Zrotation Xrotation Yrotation
                  JOINT LeftFinger01
                  {
                    OFFSET -1.1471 -3.4929 2.6334
                    CHANNELS 6 Xposition Yposition Zposition Zrotation Xrotation Yrotation
                    JOINT LeftFinger02
                    {
                      OFFSET -0.823 -2.3 1.6571
                      CHANNELS 6 Xposition Yposition Zposition Zrotation Xrotation Yrotation
                      End Site
                      {
                        OFFSET -0.5822 -1.6914 1.1582
                      }
                    }
                  }
                }
              }
            }
          }
        }
        JOINT RightCollar
        {
          OFFSET -2.2603 21.606 7.4023
          CHANNELS 6 Xposition Yposition Zposition Zrotation Xrotation Yrotation
          JOINT RightShoulder
          {
            OFFSET -13.5187 -1.1334 -5.0155
            CHANNELS 6 Xposition Yposition Zposition Zrotation Xrotation Yrotation
            JOINT RightElbow
            {
              OFFSET 0.0994 -28.0499 -0.2431
              CHANNELS 6 Xposition Yposition Zposition Zrotation Xrotation Yrotation
              JOINT RightWrist
              {
                OFFSET -0.0679 -23.3996 -0.1402
                CHANNELS 6 Xposition Yposition Zposition Zrotation Xrotation Yrotation
                JOINT RightFinger1
                {
                  OFFSET -0.7932 -9.0691 2.5189
                  CHANNELS 6 Xposition Yposition Zposition Zrotation Xrotation Yrotation
                  JOINT RightFinger11
                  {
                    OFFSET 0.8272 -3.3923 0.5977
                    CHANNELS 6 Xposition Yposition Zposition Zrotation Xrotation Yrotation
                    JOINT RightFinger12
                    {
                      OFFSET 0.565 -2.3158 0.4082
                      CHANNELS 6 Xposition Yposition Zposition Zrotation Xrotation Yrotation
                      End Site
                      {
                        OFFSET 0.4919 -1.6479 0.2673
                      }
                    }
                  }
                }
                JOINT RightFinger2
                {
                  OFFSET -0.916 -9.2044 0.2193
                  CHANNELS 6 Xposition Yposition Zposition Zrotation Xrotation Yrotation
                  JOINT RightFinger21
                  {
                    OFFSET -0.0117 -4.1944 -0.0248
                    CHANNELS 6 Xposition Yposition Zposition Zrotation Xrotation Yrotation
                    JOINT RightFinger22
                    {
                      OFFSET -0.0071 -2.3249 -0.0142
                      CHANNELS 6 Xposition Yposition Zposition Zrotation Xrotation Yrotation
                      End Site
                      {
                        OFFSET 0.1475 -2.0882 0.0028
                      }
                    }
                  }
                }
                JOINT RightFinger3
                {
                  OFFSET -0.6113 -8.7231 -2.0637
                  CHANNELS 6 Xposition Yposition Zposition Zrotation Xrotation Yrotation
                  JOINT RightFinger31
                  {
                    OFFSET 0.1927 -3.8059 -0.2383
                    CHANNELS 6 Xposition Yposition Zposition Zrotation Xrotation Yrotation
                    JOINT RightFinger32
                    {
                      OFFSET 0.1091 -2.1688 -0.1362
                      CHANNELS 6 Xposition Yposition Zposition Zrotation Xrotation Yrotation
                      End Site
                      {
                        OFFSET 0.2358 -1.9176 -0.0906
                      }
                    }
                  }
                }
                JOINT RightFinger4
                {
                  OFFSET 0.6151 -8.0947 -3.564
                  CHANNELS 6 Xposition Yposition Zposition Zrotation Xrotation Yrotation
                  JOINT RightFinger41
                  {
                    OFFSET 0.4882 -2.341 -0.6462
                    CHANNELS 6 Xposition Yposition Zposition Zrotation Xrotation Yrotation
                    JOINT RightFinger42
                    {
                      OFFSET 0.3574 -1.7166 -0.4742
                      CHANNELS 6 Xposition Yposition Zposition Zrotation Xrotation Yrotation
                      End Site
                      {
                        OFFSET 0.4187 -1.5237 -0.3496
                      }
                    }
                  }
                }
                JOINT RightFinger0
                {
                  OFFSET 1.4199 -1.8761 1.4221
                  CHANNELS 6 Xposition Yposition Zposition Zrotation Xrotation Yrotation
                  JOINT RightFinger01
                  {
                    OFFSET 1.1472 -3.4929 2.6336
                    CHANNELS 6 Xposition Yposition Zposition Zrotation Xrotation Yrotation
                    JOINT RightFinger02
                    {
                      OFFSET 0.8229 -2.3 1.6571
                      CHANNELS 6 Xposition Yposition Zposition Zrotation Xrotation Yrotation
                      End Site
                      {
                        OFFSET 0.5822 -1.6914 1.1582
                      }
                    }
                  }
                }
              }
            }
          }
        }
      }
    }
  }
  JOINT RightHip
  {
    OFFSET -9.412 3.9771 -0.7758
    CHANNELS 6 Xposition Yposition Zposition Zrotation Xrotation Yrotation
    JOINT RightKnee
    {
      OFFSET -0.7531 -40.938 0
      CHANNELS 6 Xposition Yposition Zposition Zrotation Xrotation Yrotation
      JOINT RightAnkle
      {
        OFFSET 0 -40.1986 0
        CHANNELS 6 Xposition Yposition Zposition Zrotation Xrotation Yrotation
        JOINT RightToe
        {
          OFFSET 0 -4.4182 9.239
          CHANNELS 6 Xposition Yposition Zposition Zrotation Xrotation Yrotation
          End Site
          {
            OFFSET 0 0 6.1981
          }
        }
      }
    }
  }
  JOINT LeftHip
  {
    OFFSET 9.4119 3.9773 -0.7758
    CHANNELS 6 Xposition Yposition Zposition Zrotation Xrotation Yrotation
    JOINT LeftKnee
    {
      OFFSET 0.7532 -40.9383 0
      CHANNELS 6 Xposition Yposition Zposition Zrotation Xrotation Yrotation
      JOINT LeftAnkle
      {
        OFFSET 0 -40.1986 0
        CHANNELS 6 Xposition Yposition Zposition Zrotation Xrotation Yrotation
        JOINT LeftToe
        {
          OFFSET 0 -4.4182 9.239
          CHANNELS 6 Xposition Yposition Zposition Zrotation Xrotation Yrotation
          End Site
          {
            OFFSET 0 0 6.1981
          }
        }
      }
    }
  }
}
MOTION
Frames:	4
Frame Time:	0.0333333
0.80023 13.4501 20.0498 173.405 -88.2826 -6.38878 0 8.7983 -4.7612 -0.0937325 -3.60124 -0.280043 0 8.0291 0.4195 -0.205751 -7.20196 -0.567688 0 9.9351 -2.2114 -0.205752 -7.20198 -0.56769 0 22.3885 -0.4656 7.00786 -2.93536 -4.641 -0.0001 12.643 3.4389 -7.37344e-007 -13.086 2.79903e-007 2.2603 21.606 7.4023 10.55 6.08125 -29.5455 13.5163 -1.1332 -5.0146 81.5214 -16.6396 30.9982 -0.0995 -28.05 -0.2431 -15.6081 -42.5679 -16.6059 0.0679 -23.3996 -0.1402 58.6107 -13.9775 8.03034 0.7932 -9.06901 2.5189 -1.59028e-015 5.96354e-016 -2.83268e-015 -0.8272 -3.3923 0.5977 -1.59028e-015 1.98785e-016 -2.88238e-015 -0.5649 -2.3158 0.4082 -1.59028e-015 1.98785e-016 -2.73329e-015 0.9159 -9.20441 0.2193 -1.59028e-015 5.96354e-016 -2.83268e-015 0.0117 -4.1944 -0.0248 -0.0128301 0.00234167 9.964e-005 0.0071 -2.3249 -0.0142 -1.08279e-031 7.95139e-016 7.8023e-015 0.6113 -8.72311 -2.0637 -1.59028e-015 5.96354e-016 -2.83268e-015 -0.1927 -3.8059 -0.2383 -0.016064 0.00299859 0.000853666 -0.1091 -2.1688 -0.1362 -1.59388e-006 -4.15387e-007 1.59607e-006 -0.6151 -8.09471 -3.5641 -1.59028e-015 5.96354e-016 -2.83268e-015 -0.4882 -2.341 -0.6462 -0.012613 0.00313031 0.00283066 -0.3575 -1.7167 -0.4742 3.18055e-015 -7.95139e-016 3.52843e-015 -1.42 -1.8761 1.4223 -1.59028e-015 5.96354e-016 -2.83268e-015 -1.1471 -3.4929 2.6334 -1.59028e-015 1.98785e-016 -2.88238e-015 -0.823 -2.3 1.6571 -1.59028e-015 1.98785e-016 -2.73329e-015 -2.2603 21.606 7.4023 21.7483 3.59686 9.56965 -13.5187 -1.1334 -5.0155 -73.7916 -31.1208 -0.365613 0.0994 -28.0499 -0.2431 -12.5469 -29.0763 -14.1065 -0.0679 -23.3996 -0.1402 -57.3765 -11.1249 -6.53771 -0.7932 -9.0691 2.5189 1.03184e-005 3.86349e-006 -6.01812e-006 0.8272 -3.3923 0.5977 -4.77083e-015 6.36111e-015 -7.95139e-016 0.565 -2.3158 0.4082 -9.61238e-006 -3.59253e-006 2.26886e-006 -0.916 -9.2044 0.2193 1.03184e-005 3.86349e-006 -6.01812e-006 -0.0117 -4.1944 -0.0248 0.0129259 0.00231258 -9.02926e-005 -0.0071 -2.3249 -0.0142 -7.58263e-006 -5.16614e-006 1.18626e-005 -0.6113 -8.7231 -2.0637 1.03184e-005 3.86349e-006 -6.01812e-006 0.1927 -3.8059 -0.2383 0.0163056 0.00302995 -0.000870914 0.1091 -2.1688 -0.1362 1.11036e-006 2.84779e-007 5.80841e-006 0.6151 -8.0947 -3.564 1.03184e-005 3.86349e-006 -6.01812e-006 0.4882 -2.341 -0.6462 0.0145876 0.00368555 -0.00326236 0.3574 -1.7166 -0.4742 1.61208e-006 -3.68567e-006 6.82922e-006 1.4199 -1.8761 1.4221 1.03184e-005 3.86349e-006 -6.01812e-006 1.1472 -3.4929 2.6336 -4.77083e-015 6.36111e-015 -7.95139e-016 0.8229 -2.3 1.6571 -9.61238e-006 -3.59253e-006 2.26886e-006 -9.412 3.9771 -0.7758 -14.5183 -36.3385 -25.4114 -0.7531 -40.938 0 6.754 44.2631 -3.70713 3.55271e-015 -40.1986 0 -2.46543 47.8758 5.69272 0 -4.4182 9.239 -4.88544e-007 -5.74839e-009 -6.91271e-007 9.4119 3.9773 -0.7758 13.6691 -35.5026 24.8711 0.7532 -40.9383 -3.55271e-015 -6.52453 42.5002 3.7924 0 -40.1986 0 2.44656 47.5867 -5.55839 0 -4.4182 9.239 3.56177e-006 9.29409e-007 -6.70379e-007 
0.801109 13.6533 20.1788 175.356 -87.4295 -4.42774 1.11022e-016 8.7983 -4.7612 -0.0923761 -3.67711 -0.280747 0 8.0291 0.4195 -0.203479 -7.35363 -0.569213 0 9.9351 -2.2114 -0.203479 -7.35364 -0.569214 0 22.3885 -0.4656 7.01093 -3.3861 -4.58549 -0.0001 12.643 3.4389 -9.71834e-007 -13.1526 -1.33312e-007 2.2603 21.606 7.4023 10.7942 5.68524 -29.0966 13.5163 -1.1332 -5.0146 81.4748 -16.7686 30.9751 -0.0994999 -28.05 -0.2431 -15.9141 -43.0125 -16.8291 0.0679 -23.3996 -0.1402 58.6647 -13.6456 7.95397 0.793199 -9.06901 2.5189 -1.594e-006 -4.21351e-007 1.59627e-006 -0.827199 -3.3923 0.5977 -6.87292e-006 -5.5232e-006 -6.78567e-006 -0.5649 -2.3158 0.4082 3.18055e-015 5.96354e-016 4.96962e-017 0.915899 -9.20441 0.2193 -1.594e-006 -4.21351e-007 1.59627e-006 0.0117 -4.1944 -0.0248 -0.0127859 0.00232739 8.5559e-005 0.00709999 -2.3249 -0.0142 1.59028e-015 2.38542e-015 -1.63997e-014 0.6113 -8.72311 -2.0637 -1.594e-006 -4.21351e-007 1.59627e-006 -0.1927 -3.8059 -0.2383 -0.0160555 0.00300025 0.000860244 -0.1091 -2.1688 -0.1362 -5.34996e-006 -7.71476e-006 -1.18799e-005 -0.6151 -8.09471 -3.5641 -1.594e-006 -4.21351e-007 1.59627e-006 -0.4882 -2.341 -0.6462 -0.0126251 0.00313772 0.00284273 -0.3575 -1.7167 -0.4742 -3.18055e-015 1.98785e-016 2.83268e-015 -1.42 -1.8761 1.4223 -1.594e-006 -4.21351e-007 1.59627e-006 -1.1471 -3.4929 2.6334 -6.87292e-006 -5.5232e-006 -6.78567e-006 -0.822999 -2.3 1.6571 3.18055e-015 5.96354e-016 4.96962e-017 -2.2603 21.606 7.4023 21.5382 3.39111 9.34349 -13.5187 -1.1334 -5.0155 -73.6828 -31.3512 -0.2905 0.0994 -28.0499 -0.2431 -12.609 -29.3468 -14.1364 -0.0679 -23.3996 -0.1402 -57.5052 -10.9075 -6.61168 -0.793199 -9.06911 2.5189 7.2815e-006 -2.11092e-006 1.44238e-006 0.827199 -3.3923 0.5977 1.59028e-015 -3.18055e-015 -7.95139e-016 0.565 -2.3158 0.4082 -6.10197e-007 1.98723e-006 -4.78777e-006 -0.915999 -9.20441 0.2193 7.2815e-006 -2.11092e-006 1.44238e-006 -0.0117 -4.1944 -0.0248 0.0129604 0.00232614 -9.50062e-005 -0.00709999 -2.3249 -0.0142 -6.36111e-015 0 8.74653e-015 -0.6113 -8.72311 -2.0637 7.2815e-006 -2.11092e-006 1.44238e-006 0.1927 -3.8059 -0.2383 0.0163284 0.0030365 -0.000871448 0.1091 -2.1688 -0.1362 6.98394e-006 -2.1548e-006 -4.34808e-006 0.6151 -8.09471 -3.564 7.2815e-006 -2.11092e-006 1.44238e-006 0.4882 -2.341 -0.6462 0.0145991 0.00368699 -0.00326602 0.3574 -1.7166 -0.4742 1.59028e-015 0 1.59028e-015 1.4199 -1.8761 1.4221 7.2815e-006 -2.11092e-006 1.44238e-006 1.1472 -3.4929 2.6336 1.59028e-015 -3.18055e-015 -7.95139e-016 0.822899 -2.3 1.6571 -6.10197e-007 1.98723e-006 -4.78777e-006 -9.412 3.9771 -0.7758 -14.9266 -37.3698 -26.1765 -0.7531 -40.938 -3.55271e-015 6.71243 44.5567 -3.70803 0 -40.1986 0 -2.93416 47.8575 6.15155 0 -4.4182 9.239 -4.07513e-006 2.81778e-006 -7.84751e-008 9.4119 3.9773 -0.7758 14.0825 -36.5641 25.6115 0.7532 -40.9383 0 -6.50603 42.8374 3.80972 3.55271e-015 -40.1986 0 2.89749 47.5463 -6.01035 0 -4.4182 9.239 -2.27949e-006 2.88148e-006 -3.47426e-007 
0.802009 13.8572 20.3061 176.333 -86.5751 -3.44238 0 8.7983 -4.7612 -0.0910104 -3.75287 -0.281428 -1.11022e-016 8.0291 0.4195 -0.201188 -7.50525 -0.570687 0 9.9351 -2.2114 -0.201189 -7.50526 -0.570688 -2.22045e-016 22.3885 -0.4656 7.01443 -3.83687 -4.52991 -0.0001 12.643 3.4389 -3.15977e-007 -13.2192 1.8821e-006 2.2603 21.606 7.4023 11.0414 5.2914 -28.6465 13.5163 -1.1332 -5.0146 81.4349 -16.8962 30.9538 -0.0995 -28.05 -0.2431 -16.2303 -43.4541 -17.0563 0.0679 -23.3996 -0.1402 58.7191 -13.3138 7.87734 0.7932 -9.069 2.5189 -1.27253e-006 1.12957e-005 1.16787e-005 -0.8272 -3.3923 0.5977 3.18055e-015 -1.98785e-016 6.55989e-015 -0.5649 -2.3158 0.4082 3.18055e-015 -1.98785e-016 4.72114e-015 0.9159 -9.2044 0.2193 -1.27253e-006 1.12957e-005 1.16787e-005 0.0117 -4.1944 -0.0248 -0.0128112 0.00231835 7.2001e-005 0.0071 -2.3249 -0.0142 1.59028e-015 1.59028e-015 -5.86415e-015 0.6113 -8.7231 -2.0637 -1.27253e-006 1.12957e-005 1.16787e-005 -0.1927 -3.8059 -0.2383 -0.0160565 0.0029897 0.000853164 -0.1091 -2.1688 -0.1362 3.18055e-015 0 -2.38542e-015 -0.6151 -8.0947 -3.5641 -1.27253e-006 1.12957e-005 1.16787e-005 -0.4882 -2.341 -0.6462 -0.0125646 0.00310028 0.00281449 -0.3575 -1.7167 -0.4742 -4.77083e-015 1.98785e-016 7.95139e-016 -1.42 -1.8761 1.4223 -1.27253e-006 1.12957e-005 1.16787e-005 -1.1471 -3.4929 2.6334 3.18055e-015 -1.98785e-016 6.55989e-015 -0.823 -2.3 1.6571 3.18055e-015 -1.98785e-016 4.72114e-015 -2.2603 21.606 7.4023 21.3273 3.18632 9.11661 -13.5187 -1.1334 -5.0155 -73.5691 -31.5793 -0.212462 0.0994 -28.0499 -0.2431 -12.6754 -29.6193 -14.1673 -0.0679 -23.3996 -0.1402 -57.6335 -10.6899 -6.6851 -0.7932 -9.0691 2.5189 -9.54166e-015 0 1.11319e-014 0.8272 -3.3923 0.5977 -6.36111e-015 6.36111e-015 1.03368e-014 0.565 -2.3158 0.4082 -9.54166e-015 -6.36111e-015 1.19271e-014 -0.916 -9.2044 0.2193 -9.54166e-015 0 1.11319e-014 -0.0117 -4.1944 -0.0248 0.0129631 0.00232274 -8.39401e-005 -0.0071 -2.3249 -0.0142 -4.77083e-015 0 7.15625e-015 -0.6113 -8.7231 -2.0637 -9.54166e-015 0 1.11319e-014 0.1927 -3.8059 -0.2383 0.0163186 0.00303109 -0.000861045 0.1091 -2.1688 -0.1362 -7.98511e-006 5.61759e-006 2.30838e-006 0.6151 -8.0947 -3.564 -9.54166e-015 0 1.11319e-014 0.4882 -2.341 -0.6462 0.0146055 0.00368594 -0.00325978 0.3574 -1.7166 -0.4742 3.18055e-015 0 7.95139e-016 1.4199 -1.8761 1.4221 -9.54166e-015 0 1.11319e-014 1.1472 -3.4929 2.6336 -6.36111e-015 6.36111e-015 1.03368e-014 0.8229 -2.3 1.6571 -9.54166e-015 -6.36111e-015 1.19271e-014 -9.412 3.9771 -0.7758 -15.3577 -38.3957 -26.961 -0.7531 -40.938 7.10543e-015 6.67107 44.8497 -3.70863 0 -40.1986 -3.55271e-015 -3.40236 47.8358 6.60974 -3.55271e-015 -4.4182 9.239 1.30444e-006 4.10842e-006 -9.97764e-007 9.4119 3.9773 -0.7758 14.5185 -37.6209 26.3712 0.7532 -40.9383 -3.55271e-015 -6.48803 43.1749 3.82732 3.55271e-015 -40.1986 0 3.34784 47.5035 -6.46151 0 -4.4182 9.239 2.38542e-015 4.05006e-006 1.59028e-015 
0.802932 14.0618 20.4318 176.917 -85.7205 -2.8489 0 8.7983 -4.7612 -0.0896418 -3.82862 -0.282117 1.11022e-016 8.0291 0.4195 -0.198894 -7.65677 -0.572177 -1.11022e-016 9.9351 -2.2114 -0.198895 -7.65677 -0.572178 -2.22045e-016 22.3885 -0.4656 7.01839 -4.28776 -4.47426 -0.0001 12.643 3.4389 -3.91893e-007 -13.2857 -3.12157e-006 2.2603 21.606 7.4023 11.2915 4.89954 -28.1951 13.5163 -1.1332 -5.0146 81.3886 -17.0249 30.9306 -0.0995 -28.05 -0.2431 -16.5462 -43.8967 -17.2894 0.0679 -23.3996 -0.1402 58.7738 -12.9821 7.80055 0.7932 -9.06901 2.5189 3.18055e-015 5.96354e-016 4.96962e-016 -0.827199 -3.3923 0.5977 1.59028e-015 5.96354e-016 -2.78299e-015 -0.5649 -2.3158 0.4082 0 0 -2.78299e-015 0.915899 -9.20441 0.2193 3.18055e-015 5.96354e-016 4.96962e-016 0.0117 -4.1944 -0.0248 -0.0128362 0.00233984 9.30834e-005 0.0071 -2.3249 -0.0142 -2.48009e-006 3.2827e-006 8.49917e-007 0.6113 -8.72311 -2.0637 3.18055e-015 5.96354e-016 4.96962e-016 -0.1927 -3.8059 -0.2383 -0.0160654 0.00299711 0.000858323 -0.1091 -2.1688 -0.1362 1.59028e-015 -7.95139e-016 3.13086e-015 -0.6151 -8.09471 -3.5641 3.18055e-015 5.96354e-016 4.96962e-016 -0.4882 -2.341 -0.6462 -0.0125714 0.00312805 0.00282952 -0.3575 -1.7167 -0.4742 -4.77083e-015 3.97569e-016 5.46658e-016 -1.42 -1.8761 1.4223 3.18055e-015 5.96354e-016 4.96962e-016 -1.1471 -3.4929 2.6334 1.59028e-015 5.96354e-016 -2.78299e-015 -0.823 -2.3 1.6571 0 0 -2.78299e-015 -2.2603 21.606 7.4023 21.1156 2.98231 8.88905 -13.5187 -1.1334 -5.0155 -73.4559 -31.8078 -0.134337 0.0994 -28.0499 -0.2431 -12.7409 -29.8913 -14.1985 -0.0679 -23.3996 -0.1402 -57.7615 -10.4722 -6.75797 -0.7932 -9.0691 2.5189 -1.59028e-015 -9.54166e-015 -0 0.8272 -3.3923 0.5977 8.82781e-032 -6.36111e-015 7.95139e-016 0.565 -2.3158 0.4082 -3.18055e-015 -1.27222e-014 -7.95139e-016 -0.916 -9.2044 0.2193 -1.59028e-015 -9.54166e-015 -0 -0.0117 -4.1944 -0.0248 0.0129655 0.00231197 -8.0648e-005 -0.0071 -2.3249 -0.0142 -4.77083e-015 -3.81667e-014 -7.95139e-016 -0.6113 -8.7231 -2.0637 -1.59028e-015 -9.54166e-015 -0 0.1927 -3.8059 -0.2383 0.0163279 0.00304014 -0.000867796 0.1091 -2.1688 -0.1362 -1.59028e-015 0 -7.95139e-016 0.6151 -8.0947 -3.564 -1.59028e-015 -9.54166e-015 -0 0.4882 -2.341 -0.6462 0.0146124 0.00368929 -0.00326812 0.3574 -1.7166 -0.4742 7.28081e-006 -3.39434e-006 1.43956e-006 1.4199 -1.8761 1.4221 -1.59028e-015 -9.54166e-015 -0 1.1472 -3.4929 2.6336 8.82781e-032 -6.36111e-015 7.95139e-016 0.8229 -2.3 1.6571 -3.18055e-015 -1.27222e-014 -7.95139e-016 -9.412 3.9771 -0.7758 -15.813 -39.4154 -27.7662 -0.7531 -40.938 0 6.63028 45.1421 -3.70899 0 -40.1986 0 -3.87029 47.8119 7.06755 0 -4.4182 9.239 -3.29793e-006 1.0262e-005 -1.87075e-007 9.4119 3.9773 -0.7758 14.9784 -38.6715 27.1515 0.7532 -40.9383 0 -6.47101 43.5117 3.84495 0 -40.1986 -3.55271e-015 3.79746 47.4583 -6.91178 0 -4.4182 9.239 9.98421e-007 6.82596e-006 1.36557e-006 
